<?xml version="1.0" encoding="UTF-8"?>
<svg id="Layer_2" data-name="Layer 2" xmlns="http://www.w3.org/2000/svg" viewBox="0 0 361.84 131.34">
  <defs>
    <style>
      .cls-1 {
        fill: none;
        stroke: #231f20;
        stroke-miterlimit: 10;
        stroke-width: .5px;
      }
    </style>
  </defs>
  <path class="por-1" d="M.23,126.74C14.58,90.14,32.79,55.07,54.47,22.28"/>
  <path class="por-2" d="M16.79,33.69c2.91-7.76,9.64-13.43,16.64-17.86C48.94,6.01,67.2.56,85.57.26c11.48-.19,24.55,2.61,30.29,12.55,4.58,7.93,2.86,18.38-2.28,25.96-5.14,7.58-13.15,12.73-21.35,16.8-22.68,11.24-48.69,15.65-73.81,12.5"/>
  <path class="por-3" d="M51.08,102.6c-9.89,2.37-16.59,13.78-13.83,23.57,6.09,5.9,16.57,1.71,22.3-4.53,5.74-6.24,9.84-14.47,17.44-18.22,2.73,8.48,2.43,17.91-.84,26.2,7.58-10.42,16.84-19.6,27.33-27.08,3.36-2.4,9.48-3.7,10.38.33.38,1.7-.65,3.42-.58,5.16.12,3.21,4.01,5.18,7.16,4.53,3.15-.65,5.62-3.01,7.92-5.27,12.27-12.08,25.34-24.37,41.77-29.51-5.31,13.73-10.62,27.46-15.93,41.19-1.24,3.2-2.18,7.5.6,9.5,1.71,1.23,4.07.89,6.08.25,7.49-2.36,13.51-7.86,19.35-13.11s12.07-10.58,19.69-12.47,16.99.82,20.12,8.02c1.45,3.34,1.68,7.61,4.7,9.65,1.67,1.13,3.79,1.25,5.8,1.31,15.36.45,30.78-.91,45.83-4.02,4.48-.93,9.13-2.01,13.58-.94,5.24,1.26,9.31,5.29,14.14,7.67,17.76,8.75,37.95-6.45,57.73-7"/>
  <path class="por-4" d="M203.78,82.6h5.83"/>
</svg>