<?xml version="1.0" encoding="UTF-8"?>
<svg id="Layer_2" data-name="Layer 2" xmlns="http://www.w3.org/2000/svg" viewBox="0 0 207.5 55.82">
  <defs>
    <style>
      .cls-1 {
        fill: #be1e2d;
        stroke-width: 0px;
      }
    </style>
  </defs>
  <g id="Layer_1-2" data-name="Layer 1">
    <g>
      <path class="cls-1" d="M3.52,48.77c5.87-5.04,12.96-8.33,20.63-9.42l-3.16-3.31c-.59,5.46-1.79,10.82-3.54,16.02-.31.93.48,2.06,1.09,2.67.41.42,1.69,1.54,2.32.88,12.05-12.66,25.69-23.75,40.59-32.9l-3.41-2.71c1.02,5.29-2.31,10.4-4.76,14.81-2.62,4.71-5.12,9.75-3.81,15.27.25,1.04,1.77,3.24,3.1,2.85,10.89-3.2,20.92-8.96,29.24-16.68l-3.41-2.71c.84,4.29.61,8.7-.61,12.9-.3,1.03.59,2.29,1.32,2.91,3.3,2.8,7.59,3.32,11.5,1.48,4.23-1.99,7.26-5.9,10.35-9.27,7.27-7.93,14.55-15.86,21.82-23.79,4.14-4.51,8.28-9.03,12.42-13.54l-3.41-3.55c-3.25,8.29-6.5,16.58-9.75,24.87-1.61,4.11-3.23,8.21-4.83,12.32-1.4,3.6-2.44,7.32-.83,11.04.41.94,2,2.97,3.24,2.19,8.21-5.17,16.43-10.33,24.64-15.5l-3.47-3.17c.05,4.79-.59,9.51-1.96,14.1-.44,1.49,1.57,3.86,3.1,3.69,6.51-.71,12.72-3.22,17.96-7.13l-1.61-.26c.6.33.2.11-.2-.33-.05-.06-.01,0,0,.02.06.17.26.96.33,1.42.17,1.12.22,2.25.38,3.38.36,2.55,1.85,5.59,4.63,6.18,1.79.38,3.23-.74,4.66-1.65,1.95-1.24,3.9-2.48,5.86-3.72,3.83-2.43,7.67-4.87,11.5-7.3,4.32-2.74,8.64-5.49,12.97-8.23l-3.41-3.55c-1.3,5.36-2.13,11.43,2.21,15.69,2.68,2.62,8.01,4.29,10.21.23.77-1.42-2.69-4.96-3.6-3.27-.58,1.07-1.68,1.63-2.88,1.62-.54,0-1.09-.14-1.58-.33-.24-.1-.44-.22-.66-.34-.03-.02-.45-.38-.25-.17-.33-.34-.19-.25-.12-.11-.24-.44-.39-.92-.5-1.4-.21-.92-.25-1.85-.22-2.79.08-1.98.52-3.92.99-5.84.32-1.34-1.84-4.54-3.41-3.55-7.25,4.6-14.5,9.21-21.75,13.81-1.74,1.11-3.49,2.21-5.23,3.32s-3.43,2.47-5.27,3.29c-.36.16-.83.11-1.14.24.18-.08-.12.17-.02,0-.03.05.23.14.43.31.21.18.32.5.52.66-.14-.12-.05-.08-.11-.37-.22-.96-.28-1.94-.38-2.92-.31-2.91-1.16-6.04-3.93-7.58-.46-.26-1.1-.65-1.61-.26-5.09,3.8-11.02,6.16-17.35,6.85l3.1,3.69c1.43-4.83,2.14-9.83,2.09-14.87-.01-1.24-2-4.1-3.47-3.17-8.21,5.17-16.43,10.33-24.64,15.5l3.24,2.19c-1.39-3.2.75-7.23,1.91-10.19,1.55-3.95,3.1-7.9,4.65-11.86,3.07-7.83,6.14-15.65,9.21-23.48.35-.9-.51-2.09-1.09-2.67-.4-.41-1.7-1.55-2.32-.88-6.83,7.44-13.65,14.89-20.48,22.33-3.47,3.78-6.94,7.56-10.41,11.35-3.1,3.38-6.07,7.04-9.51,10.09-1.74,1.54-3.69,2.89-5.98,3.41-1.75.4-4.07.47-5.53-.77l1.32,2.91c1.38-4.77,1.56-9.71.61-14.58-.18-.91-2.25-3.79-3.41-2.71-8.16,7.58-17.93,13.25-28.62,16.39l3.1,2.85c-1.24-5.25,1.99-10.34,4.44-14.73,2.65-4.76,5.22-9.75,4.13-15.35-.22-1.13-2.06-3.54-3.41-2.71-14.9,9.15-28.54,20.24-40.59,32.9l3.41,3.55c1.84-5.45,3.05-11.07,3.67-16.79.15-1.34-1.76-3.51-3.16-3.31-7.85,1.11-15.24,4.54-21.25,9.7-1.31,1.12,1.91,4.95,3.22,3.83h0Z"/>
      <path class="cls-1" d="M78.09,24.8l3.92-.69c.61-.11,1.27-.48,1.72-.88.37-.33.83-.88.89-1.39.06-.43,0-.9-.42-1.15-.44-.27-.97-.28-1.47-.19l-3.92.69c-.61.11-1.27.48-1.72.88-.37.33-.83.88-.89,1.39-.06.43,0,.9.42,1.15.44.27.97.28,1.47.19h0Z"/>
    </g>
  </g>
</svg>