<?xml version="1.0" encoding="UTF-8"?>
<svg id="Layer_3" data-name="Layer 3" xmlns="http://www.w3.org/2000/svg" viewBox="0 0 379.17 117.52">
  <defs>
    <style>
      .con-1 {
        fill: none;
        stroke: #231f20;
        stroke-miterlimit: 10;
        stroke-width: .75px;
      }
    </style>
  </defs>
  <path class="con-1" d="M106.33,14.14C101.79,4.74,92.19.1,83.14.39s-17.64,4.73-25.59,9.92c-16.74,10.94-31.8,25.58-44.19,42.97-4.82,6.77-9.32,14.12-11.58,22.6-2.26,8.48-1.99,18.32,2.22,25.66,5.53,9.65,16.11,12.73,25.79,14.12,19.04,2.72,38.45,1.72,57.22-2.96"/>
  <path class="con-2" d="M129.01,82.12c-5.89-3.32-13.63-2.58-19.2,1.25-5.57,3.83-8.96,10.4-9.59,17.13-.35,3.74.24,7.86,2.9,10.52,3.11,3.12,8.13,3.35,12.43,2.36,17.58-4.04,27.52-23.28,44.01-30.6-1.89,7.67-3.79,15.33-5.68,23,6.74-10.4,16.9-18.54,28.52-22.86,1.44-.53,2.98-1.02,4.49-.73,4.09.77,5.11,6.17,4.67,10.31s-1.1,9.09,2.09,11.75c14.3-18.42,32.28-33.98,52.56-45.49-8.05,13.69-21.38,24.98-24.03,40.64-.15.87-.25,1.82.19,2.58.65,1.14,2.17,1.39,3.48,1.38,6.39-.01,12.38-2.95,18.04-5.91,11.82-6.17,23.44-12.74,34.82-19.7-1.69,4.7-3.38,9.41-5.07,14.11-.65,1.81-1.18,4.15.28,5.4.97.84,2.41.77,3.67.56,9.44-1.59,17.25-8.47,26.57-10.62,1.06-.25,2.2-.42,3.22-.03,1.27.5,2.04,1.75,2.94,2.78,5.63,6.44,15.92,3.84,24.39,4.95,7.13.93,13.67,4.84,20.84,5.32,7.88.53,16.25-3.08,23.44.21"/>
</svg>