<?xml version="1.0" encoding="UTF-8"?>
<svg id="Layer_1" data-name="Layer 1" xmlns="http://www.w3.org/2000/svg" viewBox="0 0 326.34 140.2">
  <defs>
    <style>
      .cls-1 {
        fill: #231f20;
        stroke-width: 0px;
      }
    </style>
  </defs>
  <path class="cls-1" d="M1.15,139.89c10.6-20.56,22.38-40.51,35.27-59.72,12.95-19.28,27.03-37.81,42.14-55.46,7.78-9.08,15.95-19.34,27.59-23.48l-.77-.77c-7.01,18.72-14.03,37.45-21.04,56.17-3.51,9.36-7.01,18.72-10.52,28.08-1.75,4.68-3.51,9.36-5.26,14.04s-3.7,8.96-4.38,13.7c-.61,4.18.11,8.46,3.21,11.51,2.49,2.45,6.04,3.66,9.35,2.21.73-.32.1-1.4-.63-1.08-3.34,1.47-6.98-.58-8.96-3.32-2.52-3.48-2.19-8.01-1.15-11.97,1.17-4.46,3.03-8.76,4.65-13.07s3.27-8.74,4.91-13.11c6.61-17.63,13.21-35.26,19.82-52.89,3.74-9.99,7.48-19.97,11.22-29.96.16-.43-.34-.92-.77-.77-10.12,3.6-17.57,11.65-24.46,19.54-7.75,8.88-15.24,18-22.46,27.32-14.28,18.46-27.49,37.74-39.52,57.74C12.57,115.96,6.13,127.51.08,139.26c-.37.71.71,1.35,1.08.63h0Z"/>
  <path class="cls-1" d="M96.33,127.36c4.7-13.57,13.18-25.66,24.3-34.74l-1.04-.28c1.32,3.3-.05,6.66-1.51,9.66-1.38,2.81-2.78,5.59-3.91,8.51-2.36,6.05-3.85,12.4-4.52,18.86-.05.47.57.78.94.54,11.09-7.14,19.88-17.08,29.62-25.84,2.55-2.29,5.17-4.51,7.93-6.56,1.18-.88,2.38-1.73,3.61-2.54.67-.44,1.35-.87,2.04-1.29s2.58-1.9,3.36-1.25c.62.52.6,1.85.67,2.56.07.79.1,1.58.1,2.37,0,1.64-.17,3.29-.45,4.91-.58,3.28-1.61,6.47-2.78,9.58-2.62,7-5.97,13.8-7.17,21.24-.07.45.27.92.77.77,12.76-3.78,22.12-14.86,35.21-17.71,1.21-.26,2.57-.42,3.07.99.33.94.28,2.11.37,3.09.22,2.4.44,4.79.65,7.19.05.5.49.75.94.54,11.22-5.15,22.45-10.3,33.67-15.45,1.36-.62,2.71-1.24,4.07-1.87,1.09-.5,3.31-1.88,4.28-.49.88,1.25-.03,3.69-.05,5.1-.03,1.54.47,3.1,1.96,3.8,1.97.92,4.35.02,6.28-.54,5.82-1.7,11.64-3.4,17.46-5.1,3.56-1.04,8.66-2.46,11.97-.02,3.82,2.81.49,8.58,3.9,11.69,1.54,1.41,3.76,1.67,5.76,1.7,2.81.04,5.63-.14,8.43-.36,13.42-1.05,26.56-4.13,39.63-7.21.78-.18.45-1.39-.33-1.21-11.87,2.79-23.79,5.61-35.93,6.86-2.96.3-5.93.52-8.91.61-2.34.08-5.31.42-7.36-.96-2.28-1.54-1.74-4.63-1.93-6.99-.15-1.85-.73-3.62-2.18-4.86-2.83-2.42-7.23-1.96-10.59-1.22-2.62.58-5.18,1.45-7.75,2.2-2.91.85-5.82,1.7-8.73,2.55-1.42.41-2.83.83-4.25,1.24-1.25.37-2.57.82-3.9.73-2.64-.2-2.36-2.83-2.13-4.76.16-1.35.47-3.05-.51-4.18-1.51-1.74-3.86-.53-5.54.24-12.66,5.81-25.31,11.62-37.97,17.42l.94.54c-.21-2.32-.42-4.63-.63-6.95-.13-1.47,0-3.52-.98-4.76s-2.53-1.09-3.87-.81c-1.73.35-3.43.9-5.08,1.55-6.81,2.67-12.68,7.12-18.9,10.88-3.61,2.18-7.37,4.13-11.42,5.33l.77.77c1.14-7.1,4.24-13.63,6.8-20.29,2.35-6.12,4.67-13.2,3.33-19.83-.23-1.12-.88-2.3-2.17-2.32-1.46-.03-3.03,1.3-4.21,2.04-2.94,1.84-5.73,3.91-8.41,6.1-5.49,4.47-10.51,9.47-15.61,14.37-5.79,5.55-11.72,10.99-18.49,15.35l.94.54c.71-6.79,2.38-13.48,4.98-19.79,1.27-3.08,2.95-5.97,4.24-9.04,1.14-2.73,1.83-5.7.69-8.54-.18-.46-.66-.59-1.04-.28-11.29,9.22-19.85,21.53-24.62,35.29-.26.76.94,1.09,1.21.33h0Z"/>
  <path class="cls-1" d="M257.1,89.61c5.32-1.52,10.64-3.04,15.95-4.56.77-.22.44-1.43-.33-1.21-5.32,1.52-10.64,3.04-15.95,4.56-.77.22-.44,1.43.33,1.21h0Z"/>
</svg>